# xmcd
#
# Track frame offsets: 
#        150
#        12792
#        24252
#        37297
#        50927
#        62887
#        75257
#        86370
#        98932
#        111412
#        124305
#        137770
#        150557
#        163525
#        178600
#        193945
#        206127
#        218665
#        232072
#        245355
#        259227
#
# Disc length: 3621 seconds
#
# Revision: 0
# Processed by: cddbd v1.5PL3 Copyright (c) Steve Scherf et al.
# Submitted via: ExactAudioCopy v0.90b4
#
DISCID=2c0e2315
DTITLE=Blind Lemon Jefferson - Complete Recorded Works In Chronologica
DTITLE=l Order - Volume 3 - 1928
DYEAR=1928
DGENRE=Blues
TTITLE0=Blind Lemon's Penitentiary Blues
TTITLE1='Lectric Chair Blues
TTITLE2=See That My Grave Is Kept Clean
TTITLE3=Lemon's Worried Blues
TTITLE4=Mean Jumper Blues
TTITLE5=Balky Mule Blues
TTITLE6=Change My Luck Blues
TTITLE7=Prison Cell Blues
TTITLE8=Lemon's Cannon Ball Moan
TTITLE9=Long Lastin' Lovin'
TTITLE10=Piney Woods Money Moma
TTITLE11=Low Down Mojo Blues
TTITLE12=Competition Bed Blues
TTITLE13=Lock Step Blues
TTITLE14=Hangman's Blues
TTITLE15=Sad News Blues
TTITLE16=How Long How Long
TTITLE17=Christmas Ebe lues
TTITLE18=Happy New Year Blues
TTITLE19=Maltese Cat Blues
TTITLE20=D B Blues
EXTD=
EXTT0=
EXTT1=
EXTT2=
EXTT3=
EXTT4=
EXTT5=
EXTT6=
EXTT7=
EXTT8=
EXTT9=
EXTT10=
EXTT11=
EXTT12=
EXTT13=
EXTT14=
EXTT15=
EXTT16=
EXTT17=
EXTT18=
EXTT19=
EXTT20=
PLAYORDER=
